<svg xmlns="http://www.w3.org/2000/svg" version="1.1" viewBox="-5.0 -10.0 110.0 135.0">
 <g>
  <path d="m84.375 7.0312h-68.75c-4.7422 0-8.5938 3.8516-8.5938 8.5938v68.75c0 4.7422 3.8516 8.5938 8.5938 8.5938h68.75c4.7422 0 8.5938-3.8516 8.5938-8.5938v-68.75c0-4.7422-3.8516-8.5938-8.5938-8.5938zm3.9062 77.344c0 2.1523-1.7539 3.9062-3.9062 3.9062h-68.75c-2.1523 0-3.9062-1.7539-3.9062-3.9062v-25.664l13.652-12.738 13.164 25.945c0.39844 0.78906 1.2109 1.2852 2.0898 1.2852h0.074219c0.91016-0.027344 1.7188-0.58203 2.0781-1.418l16.402-38.238 13.785 9.8984c0.51953 0.37109 1.1641 0.52344 1.7891 0.39844 0.62891-0.11719 1.1797-0.48047 1.5312-1.0156l11.992-18.156v59.703zm0-68.211-14.559 22.047-14.176-10.176c-0.58203-0.41406-1.3164-0.54297-1.9961-0.35156-0.68359 0.19141-1.2422 0.67969-1.5234 1.3359l-15.574 36.316-12.305-24.254c-0.33203-0.65625-0.95703-1.1172-1.6797-1.2461-0.72266-0.125-1.4648 0.089843-2.0078 0.59375l-12.734 11.879-0.007812-36.684c0-2.1523 1.7539-3.9062 3.9062-3.9062h68.75c2.1523 0 3.9062 1.7539 3.9062 3.9062z"/>
  <path d="m16.406 81.25c0 1.293 1.0508 2.3438 2.3438 2.3438h62.5c1.293 0 2.3438-1.0508 2.3438-2.3438s-1.0508-2.3438-2.3438-2.3438h-62.5c-1.293 0-2.3438 1.0508-2.3438 2.3438z"/>
 </g>
</svg>