<svg xmlns="http://www.w3.org/2000/svg" xmlns:xlink="http://www.w3.org/1999/xlink" version="1.1" x="0px" y="0px" viewBox="0 0 100 125" enable-background="new 0 0 100 100" xml:space="preserve"><g><rect x="9.073" y="22.14" transform="matrix(0.7072 0.707 -0.707 0.7072 22.601 -6.3826)" width="19.866" height="3.909"/><rect x="14.09" y="17.122" transform="matrix(0.7071 0.7072 -0.7072 0.7071 20.5282 -11.4012)" width="19.869" height="3.909"/><path d="M90.865,80.044c-1.281-1.281-3.647-2.631-6.925-4.5c-4.336-2.474-6.682-3.368-10.552-6.921L60.435,55.67l14.982-14.983   c9.585-9.586,14.378-18.166,14.24-25.504c-0.097-5.266-2.756-7.883-3.059-8.164l-1.75-1.625L47.503,42.74l-7.349-7.35   c2.778-5.087,1.796-11.88-2.819-16.497L23.038,5.857l-3.292,3.611l14.172,12.917c3.583,3.62,3.91,9.139,0.723,12.327   c-3.188,3.185-8.705,2.859-12.325-0.723L9.397,19.817l-3.611,3.292l12.96,14.214l0.077,0.083c2.906,2.903,6.674,4.375,10.337,4.375   c2.158,0,4.275-0.521,6.163-1.552l7.345,7.347L8.228,82.014l0.026,0.026c-3.092,3.544-3.188,7.363-0.2,10.355   c1.449,1.446,3.182,2.21,5.011,2.21h0.002c2.127,0,4.208-1,6.183-2.974l25.346-25.344l-2.78-2.78   c2.548-0.958,5.597,1.632,5.74,1.758l1.744,1.539l6.3-6.3l11.376,11.376l-0.002,0.004c5.716,5.714,6.271,7.855,8.933,12.685   c1.633,2.967,2.812,5.11,4.067,6.365c2.12,2.119,4.825,3.334,7.422,3.334c1.909,0,3.643-0.683,4.882-1.922   C95.33,89.296,94.709,83.891,90.865,80.044z M15.746,88.126c-0.982,0.984-1.936,1.525-2.679,1.525c-0.186,0-0.748,0-1.507-0.76   c-0.598-0.598-1.599-1.601,0.876-4.075l21.838-21.841l3.312,3.312L15.746,88.126z M48.932,60.166   c-2.843-1.724-7.11-2.974-10.753-0.295l-0.4-0.399l46.64-46.638c1.202,4.1-0.44,12.283-12.505,24.35L48.932,60.166z M88.822,88.892   c-0.404,0.406-1,0.493-1.427,0.493c-1.291,0-2.774-0.713-3.967-1.905c-0.766-0.764-1.97-2.95-3.244-5.266   c-0.799-1.451-1.682-3.056-2.68-4.748c1.416,0.838,2.771,1.612,4.015,2.321c2.608,1.489,5.074,2.894,5.89,3.71   C89.357,85.447,89.763,87.955,88.822,88.892z"/></g></svg>