<svg xmlns="http://www.w3.org/2000/svg" viewBox="0 0 24 30" fill="none" x="0px" y="0px"><path fill-rule="evenodd" clip-rule="evenodd" d="M16.804 8.99037C16.8771 8.99757 16.9881 9 17.5 9C18.0119 9 18.1229 8.99757 18.196 8.99037C19.1456 8.89685 19.8968 8.14559 19.9904 7.19603C19.9976 7.1229 20 7.01193 20 6.5C20 5.98807 19.9976 5.8771 19.9904 5.80397C19.8968 4.85441 19.1456 4.10315 18.196 4.00963C18.1229 4.00243 18.0119 4 17.5 4C16.9881 4 16.8771 4.00243 16.804 4.00963C15.8544 4.10315 15.1032 4.85441 15.0096 5.80397C15.0024 5.8771 15 5.98807 15 6.5C15 7.01193 15.0024 7.1229 15.0096 7.19603C15.1032 8.14559 15.8544 8.89685 16.804 8.99037ZM13.0193 5.60793C13 5.80349 13 6.03566 13 6.5C13 6.96434 13 7.19651 13.0193 7.39207C13.2063 9.29118 14.7088 10.7937 16.6079 10.9807C16.8035 11 17.0357 11 17.5 11C17.9643 11 18.1965 11 18.3921 10.9807C20.2912 10.7937 21.7937 9.29118 21.9807 7.39207C22 7.19651 22 6.96434 22 6.5C22 6.03566 22 5.80349 21.9807 5.60793C21.7937 3.70882 20.2912 2.20631 18.3921 2.01926C18.1965 2 17.9643 2 17.5 2C17.0357 2 16.8035 2 16.6079 2.01926C14.7088 2.20631 13.2063 3.70882 13.0193 5.60793Z" fill="black"/><path fill-rule="evenodd" clip-rule="evenodd" d="M5.80397 8.99037C5.8771 8.99757 5.98807 9 6.5 9C7.01193 9 7.1229 8.99757 7.19603 8.99037C8.14559 8.89685 8.89685 8.14559 8.99037 7.19603C8.99757 7.1229 9 7.01193 9 6.5C9 5.98807 8.99757 5.8771 8.99037 5.80397C8.89685 4.85441 8.14559 4.10315 7.19603 4.00963C7.1229 4.00243 7.01193 4 6.5 4C5.98807 4 5.8771 4.00243 5.80397 4.00963C4.85441 4.10315 4.10315 4.85441 4.00963 5.80397C4.00243 5.8771 4 5.98807 4 6.5C4 7.01193 4.00243 7.1229 4.00963 7.19603C4.10315 8.14559 4.85441 8.89685 5.80397 8.99037ZM2.01926 5.60793C2 5.80349 2 6.03566 2 6.5C2 6.96434 2 7.19651 2.01926 7.39207C2.20631 9.29118 3.70882 10.7937 5.60793 10.9807C5.80349 11 6.03566 11 6.5 11C6.96434 11 7.19651 11 7.39207 10.9807C9.29118 10.7937 10.7937 9.29118 10.9807 7.39207C11 7.19651 11 6.96434 11 6.5C11 6.03566 11 5.80349 10.9807 5.60793C10.7937 3.70882 9.29118 2.20631 7.39207 2.01926C7.19651 2 6.96434 2 6.5 2C6.03566 2 5.80349 2 5.60793 2.01926C3.70882 2.20631 2.20631 3.70882 2.01926 5.60793Z" fill="black"/><path fill-rule="evenodd" clip-rule="evenodd" d="M5.80397 19.9904C5.8771 19.9976 5.98807 20 6.5 20C7.01193 20 7.1229 19.9976 7.19603 19.9904C8.14559 19.8968 8.89685 19.1456 8.99037 18.196C8.99757 18.1229 9 18.0119 9 17.5C9 16.9881 8.99757 16.8771 8.99037 16.804C8.89685 15.8544 8.14559 15.1032 7.19603 15.0096C7.1229 15.0024 7.01193 15 6.5 15C5.98807 15 5.8771 15.0024 5.80397 15.0096C4.85441 15.1032 4.10315 15.8544 4.00963 16.804C4.00243 16.8771 4 16.9881 4 17.5C4 18.0119 4.00243 18.1229 4.00963 18.196C4.10315 19.1456 4.85441 19.8968 5.80397 19.9904ZM2.01926 16.6079C2 16.8035 2 17.0357 2 17.5C2 17.9643 2 18.1965 2.01926 18.3921C2.20631 20.2912 3.70882 21.7937 5.60793 21.9807C5.80349 22 6.03566 22 6.5 22C6.96434 22 7.19651 22 7.39207 21.9807C9.29118 21.7937 10.7937 20.2912 10.9807 18.3921C11 18.1965 11 17.9643 11 17.5C11 17.0357 11 16.8035 10.9807 16.6079C10.7937 14.7088 9.29118 13.2063 7.39207 13.0193C7.19651 13 6.96434 13 6.5 13C6.03566 13 5.80349 13 5.60793 13.0193C3.70882 13.2063 2.20631 14.7088 2.01926 16.6079Z" fill="black"/><path fill-rule="evenodd" clip-rule="evenodd" d="M16.804 19.9904C16.8771 19.9976 16.9881 20 17.5 20C18.0119 20 18.1229 19.9976 18.196 19.9904C19.1456 19.8968 19.8968 19.1456 19.9904 18.196C19.9976 18.1229 20 18.0119 20 17.5C20 16.9881 19.9976 16.8771 19.9904 16.804C19.8968 15.8544 19.1456 15.1032 18.196 15.0096C18.1229 15.0024 18.0119 15 17.5 15C16.9881 15 16.8771 15.0024 16.804 15.0096C15.8544 15.1032 15.1032 15.8544 15.0096 16.804C15.0024 16.8771 15 16.9881 15 17.5C15 18.0119 15.0024 18.1229 15.0096 18.196C15.1032 19.1456 15.8544 19.8968 16.804 19.9904ZM13.0193 16.6079C13 16.8035 13 17.0357 13 17.5C13 17.9643 13 18.1965 13.0193 18.3921C13.2063 20.2912 14.7088 21.7937 16.6079 21.9807C16.8035 22 17.0357 22 17.5 22C17.9643 22 18.1965 22 18.3921 21.9807C20.2912 21.7937 21.7937 20.2912 21.9807 18.3921C22 18.1965 22 17.9643 22 17.5C22 17.0357 22 16.8035 21.9807 16.6079C21.7937 14.7088 20.2912 13.2063 18.3921 13.0193C18.1965 13 17.9643 13 17.5 13C17.0357 13 16.8035 13 16.6079 13.0193C14.7088 13.2063 13.2063 14.7088 13.0193 16.6079Z" fill="black"/></svg>