<svg xmlns="http://www.w3.org/2000/svg" version="1.1" viewBox="-5.0 -10.0 110.0 135.0">
 <g>
  <path d="m67.121 29.879c-1.1719-1.1719-3.0703-1.1719-4.2422 0s-1.1719 3.0703 0 4.2422l12.879 12.879h-40.758c-1.6562 0-3 1.3438-3 3s1.3438 3 3 3h40.758l-12.879 12.879c-1.1719 1.1719-1.1719 3.0703 0 4.2422 0.58594 0.58594 1.3516 0.87891 2.1211 0.87891s1.5352-0.29297 2.1211-0.87891l20.121-20.121z"/>
  <path d="m59 77c-1.6562 0-3 1.3438-3 3v3c0 1.6523-1.3477 3-3 3h-30c-1.6523 0-3-1.3477-3-3v-66c0-1.6523 1.3477-3 3-3h30c1.6523 0 3 1.3477 3 3v3c0 1.6562 1.3438 3 3 3s3-1.3438 3-3v-3c0-4.9609-4.0391-9-9-9h-30c-4.9609 0-9 4.0391-9 9v66c0 4.9648 4.0391 9 9 9h30c4.9609 0 9-4.0352 9-9v-3c0-1.6562-1.3438-3-3-3z"/>
 </g>
</svg>