<svg data-v-423bf9ae="" xmlns="http://www.w3.org/2000/svg" viewBox="0 0 484 90" class="iconLeft"><!----><!----><!----><g data-v-423bf9ae="" id="57ce7fc8-6c50-4c58-b329-92d8b40f8129" fill="white" transform="matrix(4.838709826275912,0,0,4.838709826275912,110.00001259301601,-1.9354853456400107)"><path d="M3.33 12.36L3.33 4.70Q3.33 4.48 3.17 4.38Q3.01 4.27 2.82 4.27L2.82 4.27Q2.43 4.27 2.07 4.39Q1.71 4.50 1.42 4.69Q1.13 4.89 0.96 5.16Q0.79 5.43 0.79 5.74L0.79 5.74Q0.79 5.96 0.84 6.09Q0.90 6.22 0.98 6.29Q1.05 6.35 1.13 6.37Q1.21 6.38 1.24 6.38L1.24 6.38Q1.42 6.38 1.52 6.33Q1.63 6.27 1.72 6.20Q1.81 6.14 1.89 6.08Q1.97 6.02 2.07 6.02L2.07 6.02Q2.15 6.02 2.25 6.06Q2.34 6.10 2.42 6.18Q2.50 6.26 2.55 6.40Q2.60 6.53 2.60 6.72L2.60 6.72Q2.60 6.99 2.50 7.19Q2.39 7.39 2.23 7.52Q2.06 7.66 1.84 7.72Q1.63 7.79 1.42 7.79L1.42 7.79Q1.09 7.79 0.82 7.67Q0.56 7.56 0.38 7.36Q0.19 7.16 0.10 6.90Q0 6.63 0 6.33L0 6.33Q0 5.48 0.43 4.93Q0.86 4.38 1.60 4.06Q2.34 3.74 3.33 3.62Q4.32 3.50 5.43 3.50L5.43 3.50Q6.71 3.50 7.73 3.76Q8.76 4.01 9.50 4.59Q10.23 5.16 10.62 6.09Q11.02 7.01 11.02 8.35L11.02 8.35Q11.02 9.68 10.60 10.71Q10.18 11.74 9.45 12.44Q8.72 13.15 7.74 13.51Q6.76 13.88 5.64 13.88L5.64 13.88Q4.89 13.88 4.44 13.81Q3.99 13.73 3.74 13.56Q3.49 13.38 3.41 13.09Q3.33 12.80 3.33 12.36L3.33 12.36ZM5.58 5.00L5.58 12.42Q5.58 12.81 5.76 12.98Q5.93 13.15 6.28 13.15L6.28 13.15Q6.79 13.15 7.22 12.92Q7.66 12.69 7.97 12.14Q8.29 11.59 8.46 10.68Q8.64 9.76 8.64 8.37L8.64 8.37Q8.64 7.44 8.53 6.76Q8.42 6.08 8.23 5.61Q8.05 5.13 7.81 4.84Q7.57 4.54 7.33 4.37Q7.08 4.20 6.85 4.15Q6.61 4.09 6.43 4.09L6.43 4.09Q5.98 4.09 5.78 4.29Q5.58 4.48 5.58 5.00L5.58 5.00ZM14.62 7.76L14.62 13.10Q14.62 13.19 14.58 13.32Q14.55 13.45 14.44 13.56Q14.33 13.67 14.12 13.75Q13.90 13.83 13.54 13.83L13.54 13.83Q13.18 13.83 12.97 13.74Q12.77 13.66 12.67 13.54Q12.56 13.43 12.54 13.30Q12.52 13.18 12.52 13.10L12.52 13.10L12.52 7.83Q12.52 7.63 12.42 7.48Q12.33 7.33 12.11 7.33L12.11 7.33Q12.00 7.33 11.92 7.38Q11.83 7.42 11.74 7.49L11.74 7.49L11.59 7.32Q11.75 7.19 11.95 7.06Q12.14 6.94 12.37 6.84Q12.59 6.75 12.85 6.69Q13.11 6.62 13.40 6.62L13.40 6.62Q13.84 6.62 14.09 6.74Q14.33 6.86 14.45 7.04Q14.57 7.21 14.59 7.41Q14.62 7.61 14.62 7.76L14.62 7.76ZM12.30 5.07L12.30 5.07Q12.30 4.87 12.39 4.70Q12.48 4.53 12.63 4.40Q12.78 4.27 12.98 4.19Q13.19 4.12 13.43 4.12L13.43 4.12Q13.66 4.12 13.86 4.19Q14.06 4.27 14.21 4.40Q14.36 4.53 14.45 4.70Q14.53 4.87 14.53 5.07L14.53 5.07Q14.53 5.26 14.45 5.43Q14.36 5.61 14.21 5.73Q14.06 5.86 13.86 5.93Q13.66 6.01 13.43 6.01L13.43 6.01Q13.19 6.01 12.98 5.93Q12.78 5.86 12.63 5.73Q12.48 5.61 12.39 5.43Q12.30 5.26 12.30 5.07ZM20.36 10.32L20.36 10.32Q20.36 9.45 20.28 8.94Q20.20 8.42 20.07 8.15Q19.94 7.88 19.78 7.80Q19.63 7.71 19.46 7.71L19.46 7.71Q19.26 7.71 19.11 7.82Q18.96 7.92 18.84 8.06Q18.73 8.20 18.65 8.33Q18.57 8.47 18.52 8.54L18.52 8.54L18.52 13.10Q18.52 13.19 18.49 13.32Q18.46 13.45 18.36 13.56Q18.25 13.67 18.04 13.75Q17.83 13.83 17.47 13.83L17.47 13.83Q17.11 13.83 16.90 13.74Q16.69 13.66 16.58 13.54Q16.47 13.43 16.45 13.30Q16.42 13.18 16.42 13.10L16.42 13.10L16.42 7.83Q16.42 7.63 16.33 7.48Q16.24 7.33 16.02 7.33L16.02 7.33Q15.90 7.33 15.82 7.38Q15.74 7.42 15.64 7.49L15.64 7.49L15.50 7.32Q15.65 7.19 15.85 7.06Q16.04 6.94 16.27 6.84Q16.50 6.75 16.75 6.69Q17.01 6.62 17.30 6.62L17.30 6.62Q17.75 6.62 17.99 6.77Q18.24 6.92 18.35 7.12Q18.47 7.33 18.49 7.55Q18.52 7.77 18.52 7.92L18.52 7.92Q18.77 7.56 19.09 7.27L19.09 7.27Q19.22 7.15 19.38 7.03Q19.54 6.92 19.73 6.83Q19.91 6.73 20.11 6.68Q20.31 6.62 20.52 6.62L20.52 6.62Q20.99 6.62 21.35 6.80Q21.70 6.98 21.95 7.40Q22.20 7.81 22.33 8.50Q22.46 9.19 22.46 10.21L22.46 10.21Q22.46 11.20 22.28 11.93Q22.10 12.66 21.81 13.17Q21.53 13.69 21.16 14.01Q20.80 14.33 20.43 14.52Q20.06 14.70 19.73 14.78Q19.39 14.85 19.14 14.85L19.14 14.85L19.07 14.57Q19.27 14.53 19.44 14.42Q19.62 14.32 19.76 14.12Q19.91 13.92 20.02 13.62Q20.13 13.32 20.20 12.86Q20.28 12.40 20.32 11.77Q20.36 11.15 20.36 10.32ZM28.33 8.99L25.63 10.58Q25.63 10.80 25.70 11.06Q25.76 11.31 25.89 11.57Q26.01 11.83 26.19 12.07Q26.37 12.30 26.61 12.49Q26.84 12.67 27.13 12.78Q27.42 12.89 27.76 12.89L27.76 12.89Q28 12.89 28.21 12.84Q28.41 12.78 28.59 12.69Q28.77 12.59 28.93 12.47Q29.09 12.34 29.26 12.20L29.26 12.20L29.43 12.36Q29.27 12.57 29.03 12.82Q28.78 13.08 28.43 13.30Q28.08 13.52 27.62 13.67Q27.15 13.82 26.56 13.82L26.56 13.82Q25.96 13.82 25.40 13.60Q24.83 13.38 24.40 12.95Q23.96 12.52 23.70 11.88Q23.43 11.24 23.43 10.38L23.43 10.38Q23.43 9.75 23.59 9.24Q23.75 8.72 24.02 8.30Q24.29 7.88 24.65 7.57Q25.01 7.25 25.40 7.04Q25.80 6.84 26.21 6.73Q26.63 6.62 27.01 6.62L27.01 6.62Q27.51 6.62 27.89 6.73Q28.27 6.84 28.52 7.03Q28.77 7.21 28.89 7.45Q29.01 7.70 29.01 7.96L29.01 7.96Q29.01 8.29 28.83 8.54Q28.64 8.80 28.33 8.99L28.33 8.99ZM25.57 10.02L27.01 9.19Q27.10 9.14 27.16 9.09Q27.21 9.04 27.25 8.97Q27.28 8.89 27.30 8.79Q27.32 8.68 27.32 8.52L27.32 8.52Q27.32 8.35 27.28 8.15Q27.24 7.94 27.15 7.75Q27.06 7.57 26.93 7.44Q26.79 7.32 26.60 7.32L26.60 7.32Q26.35 7.32 26.18 7.47Q26.00 7.62 25.89 7.85Q25.78 8.08 25.71 8.38Q25.65 8.67 25.61 8.98Q25.58 9.28 25.57 9.55Q25.57 9.83 25.57 10.02L25.57 10.02ZM38.54 3.50L38.54 3.50Q40.40 3.50 41.38 4.16Q42.36 4.82 42.36 6.05L42.36 6.05Q42.36 6.65 42.22 7.08Q42.08 7.51 41.83 7.80Q41.58 8.10 41.24 8.30Q40.89 8.49 40.49 8.63L40.49 8.63Q40.77 8.70 41.05 9.03Q41.34 9.36 41.63 9.84Q41.92 10.32 42.23 10.91Q42.53 11.50 42.83 12.10Q43.13 12.70 43.45 13.27Q43.76 13.84 44.07 14.28Q44.38 14.72 44.70 14.99Q45.01 15.26 45.33 15.26L45.33 15.26Q45.47 15.26 45.60 15.20Q45.73 15.15 45.81 15.09L45.81 15.09L45.95 15.36Q45.81 15.44 45.62 15.53Q45.42 15.62 45.15 15.70Q44.88 15.78 44.55 15.84Q44.22 15.90 43.82 15.90L43.82 15.90Q43.16 15.90 42.62 15.53Q42.09 15.17 41.71 14.51L41.71 14.51Q41.32 13.82 40.94 13.07Q40.56 12.32 40.19 11.57Q39.82 10.81 39.45 10.10Q39.07 9.38 38.70 8.75L38.70 8.75L38.75 8.47Q39.16 8.57 39.45 8.42Q39.75 8.27 39.94 7.93Q40.13 7.59 40.23 7.10Q40.32 6.61 40.32 6.04L40.32 6.04Q40.32 5.63 40.23 5.27Q40.14 4.91 39.98 4.64Q39.82 4.37 39.59 4.21Q39.37 4.06 39.09 4.06L39.09 4.06Q38.87 4.06 38.73 4.13Q38.59 4.19 38.51 4.29Q38.42 4.39 38.39 4.50Q38.36 4.61 38.36 4.72L38.36 4.72L38.36 12.82Q38.36 13.35 38.09 13.59Q37.81 13.83 37.24 13.83L37.24 13.83Q36.67 13.83 36.39 13.59Q36.12 13.35 36.12 12.82L36.12 12.82L36.12 4.65Q36.12 4.27 35.60 4.27L35.60 4.27Q35.23 4.27 34.84 4.39Q34.45 4.50 34.14 4.69Q33.83 4.89 33.63 5.16Q33.43 5.43 33.43 5.74L33.43 5.74Q33.43 5.96 33.49 6.09Q33.55 6.22 33.63 6.29Q33.70 6.35 33.78 6.37Q33.86 6.38 33.89 6.38L33.89 6.38Q34.06 6.38 34.17 6.33Q34.28 6.27 34.37 6.20Q34.46 6.14 34.54 6.08Q34.62 6.02 34.72 6.02L34.72 6.02Q34.80 6.02 34.89 6.06Q34.99 6.10 35.06 6.18Q35.14 6.26 35.20 6.40Q35.25 6.53 35.25 6.72L35.25 6.72Q35.25 6.99 35.15 7.19Q35.04 7.39 34.87 7.52Q34.71 7.66 34.49 7.72Q34.28 7.79 34.06 7.79L34.06 7.79Q33.74 7.79 33.47 7.67Q33.21 7.56 33.02 7.36Q32.84 7.16 32.74 6.90Q32.65 6.63 32.65 6.33L32.65 6.33Q32.65 5.76 32.86 5.33Q33.07 4.89 33.46 4.58Q33.84 4.27 34.38 4.06Q34.92 3.85 35.58 3.73Q36.24 3.60 36.99 3.55Q37.73 3.50 38.54 3.50ZM48.89 8.99L46.19 10.58Q46.19 10.80 46.26 11.06Q46.32 11.31 46.44 11.57Q46.57 11.83 46.75 12.07Q46.93 12.30 47.16 12.49Q47.40 12.67 47.69 12.78Q47.97 12.89 48.32 12.89L48.32 12.89Q48.56 12.89 48.76 12.84Q48.97 12.78 49.14 12.69Q49.32 12.59 49.49 12.47Q49.65 12.34 49.81 12.20L49.81 12.20L49.98 12.36Q49.83 12.57 49.58 12.82Q49.33 13.08 48.99 13.30Q48.64 13.52 48.17 13.67Q47.71 13.82 47.11 13.82L47.11 13.82Q46.52 13.82 45.95 13.60Q45.39 13.38 44.95 12.95Q44.52 12.52 44.25 11.88Q43.99 11.24 43.99 10.38L43.99 10.38Q43.99 9.75 44.15 9.24Q44.30 8.72 44.57 8.30Q44.84 7.88 45.20 7.57Q45.56 7.25 45.96 7.04Q46.35 6.84 46.77 6.73Q47.18 6.62 47.56 6.62L47.56 6.62Q48.07 6.62 48.45 6.73Q48.82 6.84 49.07 7.03Q49.32 7.21 49.44 7.45Q49.57 7.70 49.57 7.96L49.57 7.96Q49.57 8.29 49.38 8.54Q49.20 8.80 48.89 8.99L48.89 8.99ZM46.12 10.02L47.56 9.19Q47.65 9.14 47.71 9.09Q47.77 9.04 47.80 8.97Q47.84 8.89 47.85 8.79Q47.87 8.68 47.87 8.52L47.87 8.52Q47.87 8.35 47.83 8.15Q47.80 7.94 47.71 7.75Q47.62 7.57 47.48 7.44Q47.35 7.32 47.15 7.32L47.15 7.32Q46.91 7.32 46.73 7.47Q46.56 7.62 46.45 7.85Q46.33 8.08 46.27 8.38Q46.20 8.67 46.17 8.98Q46.14 9.28 46.13 9.55Q46.12 9.83 46.12 10.02L46.12 10.02ZM50.72 7.91L50.72 7.91Q50.68 7.64 50.59 7.49Q50.50 7.33 50.28 7.33L50.28 7.33Q50.16 7.33 50.08 7.38Q49.99 7.42 49.90 7.49L49.90 7.49L49.76 7.32Q49.92 7.19 50.11 7.06Q50.31 6.94 50.53 6.84Q50.76 6.75 51.02 6.69Q51.28 6.62 51.56 6.62L51.56 6.62Q51.97 6.62 52.23 6.76Q52.48 6.90 52.63 7.11Q52.77 7.32 52.83 7.56Q52.90 7.80 52.92 7.99L52.92 7.99Q53.18 10.06 53.49 11.13Q53.81 12.20 54.24 12.20L54.24 12.20Q54.48 12.20 54.70 11.94Q54.92 11.68 55.09 11.22Q55.25 10.77 55.36 10.17Q55.46 9.57 55.46 8.89L55.46 8.89Q55.46 8.44 55.40 8.12Q55.34 7.81 55.26 7.60Q55.19 7.39 55.13 7.25Q55.06 7.11 55.06 7L55.06 7Q55.06 6.90 55.15 6.83Q55.23 6.76 55.34 6.71Q55.45 6.67 55.57 6.64Q55.69 6.62 55.77 6.62L55.77 6.62Q55.97 6.62 56.05 6.68Q56.14 6.73 56.20 6.89L56.20 6.89Q56.26 7.09 56.28 7.41Q56.31 7.74 56.31 8.11L56.31 8.11Q56.31 8.63 56.24 9.26Q56.16 9.89 56.02 10.53Q55.87 11.16 55.64 11.76Q55.42 12.35 55.11 12.81Q54.80 13.28 54.40 13.55Q54.01 13.83 53.53 13.83L53.53 13.83Q52.96 13.83 52.54 13.50Q52.12 13.17 51.83 12.65Q51.54 12.12 51.35 11.46Q51.16 10.81 51.04 10.15Q50.92 9.49 50.85 8.90Q50.78 8.31 50.72 7.91ZM59.77 7.76L59.77 13.10Q59.77 13.19 59.74 13.32Q59.71 13.45 59.59 13.56Q59.48 13.67 59.27 13.75Q59.06 13.83 58.69 13.83L58.69 13.83Q58.33 13.83 58.13 13.74Q57.92 13.66 57.82 13.54Q57.72 13.43 57.69 13.30Q57.67 13.18 57.67 13.10L57.67 13.10L57.67 7.83Q57.67 7.63 57.58 7.48Q57.48 7.33 57.26 7.33L57.26 7.33Q57.15 7.33 57.07 7.38Q56.98 7.42 56.89 7.49L56.89 7.49L56.75 7.32Q56.90 7.19 57.10 7.06Q57.29 6.94 57.52 6.84Q57.74 6.75 58.00 6.69Q58.26 6.62 58.55 6.62L58.55 6.62Q58.99 6.62 59.24 6.74Q59.49 6.86 59.60 7.04Q59.72 7.21 59.74 7.41Q59.77 7.61 59.77 7.76L59.77 7.76ZM57.46 5.07L57.46 5.07Q57.46 4.87 57.54 4.70Q57.63 4.53 57.78 4.40Q57.93 4.27 58.14 4.19Q58.34 4.12 58.58 4.12L58.58 4.12Q58.81 4.12 59.01 4.19Q59.21 4.27 59.36 4.40Q59.51 4.53 59.60 4.70Q59.68 4.87 59.68 5.07L59.68 5.07Q59.68 5.26 59.60 5.43Q59.51 5.61 59.36 5.73Q59.21 5.86 59.01 5.93Q58.81 6.01 58.58 6.01L58.58 6.01Q58.34 6.01 58.14 5.93Q57.93 5.86 57.78 5.73Q57.63 5.61 57.54 5.43Q57.46 5.26 57.46 5.07ZM65.95 8.99L63.25 10.58Q63.25 10.80 63.32 11.06Q63.38 11.31 63.51 11.57Q63.63 11.83 63.81 12.07Q63.99 12.30 64.23 12.49Q64.46 12.67 64.75 12.78Q65.04 12.89 65.38 12.89L65.38 12.89Q65.62 12.89 65.82 12.84Q66.03 12.78 66.21 12.69Q66.38 12.59 66.55 12.47Q66.71 12.34 66.88 12.20L66.88 12.20L67.05 12.36Q66.89 12.57 66.64 12.82Q66.40 13.08 66.05 13.30Q65.70 13.52 65.24 13.67Q64.77 13.82 64.18 13.82L64.18 13.82Q63.58 13.82 63.02 13.60Q62.45 13.38 62.02 12.95Q61.58 12.52 61.31 11.88Q61.05 11.24 61.05 10.38L61.05 10.38Q61.05 9.75 61.21 9.24Q61.37 8.72 61.64 8.30Q61.91 7.88 62.27 7.57Q62.62 7.25 63.02 7.04Q63.42 6.84 63.83 6.73Q64.24 6.62 64.63 6.62L64.63 6.62Q65.13 6.62 65.51 6.73Q65.88 6.84 66.13 7.03Q66.38 7.21 66.51 7.45Q66.63 7.70 66.63 7.96L66.63 7.96Q66.63 8.29 66.45 8.54Q66.26 8.80 65.95 8.99L65.95 8.99ZM63.18 10.02L64.63 9.19Q64.72 9.14 64.77 9.09Q64.83 9.04 64.87 8.97Q64.90 8.89 64.92 8.79Q64.93 8.68 64.93 8.52L64.93 8.52Q64.93 8.35 64.90 8.15Q64.86 7.94 64.77 7.75Q64.68 7.57 64.54 7.44Q64.41 7.32 64.22 7.32L64.22 7.32Q63.97 7.32 63.80 7.47Q63.62 7.62 63.51 7.85Q63.40 8.08 63.33 8.38Q63.27 8.67 63.23 8.98Q63.20 9.28 63.19 9.55Q63.18 9.83 63.18 10.02L63.18 10.02ZM76.30 8.79L76.30 8.79Q76.30 8.34 76.23 8.05Q76.17 7.75 76.10 7.56Q76.03 7.36 75.97 7.24Q75.91 7.11 75.91 7L75.91 7Q75.91 6.90 75.99 6.83Q76.07 6.76 76.18 6.71Q76.30 6.67 76.42 6.64Q76.54 6.62 76.61 6.62L76.61 6.62Q76.81 6.62 76.90 6.68Q76.99 6.73 77.04 6.89L77.04 6.89Q77.10 7.09 77.13 7.41Q77.15 7.74 77.15 8.11L77.15 8.11Q77.15 8.63 77.09 9.26Q77.03 9.89 76.89 10.53Q76.76 11.16 76.55 11.76Q76.34 12.35 76.05 12.81Q75.76 13.28 75.37 13.55Q74.99 13.83 74.50 13.83L74.50 13.83Q74.12 13.83 73.82 13.68Q73.51 13.52 73.27 13.25Q73.04 12.99 72.85 12.63Q72.67 12.27 72.54 11.86L72.54 11.86Q72.38 12.28 72.17 12.64Q71.97 13.00 71.72 13.26Q71.47 13.53 71.17 13.68Q70.87 13.83 70.52 13.83L70.52 13.83Q70.09 13.83 69.76 13.64Q69.43 13.45 69.17 13.13Q68.92 12.80 68.74 12.37Q68.55 11.94 68.42 11.46Q68.28 10.99 68.20 10.48Q68.11 9.97 68.04 9.50Q67.98 9.03 67.94 8.62Q67.90 8.21 67.86 7.91L67.86 7.91Q67.81 7.64 67.72 7.49Q67.63 7.33 67.41 7.33L67.41 7.33Q67.29 7.33 67.21 7.38Q67.13 7.42 67.03 7.49L67.03 7.49L66.89 7.32Q67.05 7.19 67.24 7.06Q67.44 6.94 67.66 6.84Q67.89 6.75 68.15 6.69Q68.41 6.62 68.69 6.62L68.69 6.62Q69.10 6.62 69.36 6.76Q69.61 6.90 69.76 7.11Q69.90 7.32 69.97 7.56Q70.03 7.80 70.05 7.99L70.05 7.99Q70.18 9.02 70.30 9.81Q70.42 10.60 70.55 11.13Q70.69 11.66 70.85 11.93Q71.01 12.20 71.23 12.20L71.23 12.20Q71.37 12.20 71.51 12.07Q71.65 11.95 71.77 11.73Q71.89 11.51 72.00 11.20Q72.11 10.89 72.19 10.51L72.19 10.51Q72.13 10.14 72.08 9.77Q72.03 9.40 71.99 9.06Q71.96 8.72 71.92 8.43Q71.89 8.13 71.85 7.91L71.85 7.91Q71.74 7.27 71.97 6.95Q72.19 6.62 72.86 6.62L72.86 6.62Q73.15 6.62 73.35 6.68Q73.55 6.73 73.69 6.87Q73.82 7.01 73.90 7.25Q73.99 7.49 74.03 7.87L74.03 7.87Q74.16 8.89 74.29 9.70Q74.41 10.51 74.55 11.06Q74.68 11.61 74.84 11.90Q75.00 12.20 75.22 12.20L75.22 12.20Q75.46 12.20 75.65 11.91Q75.85 11.62 76.00 11.15Q76.14 10.68 76.22 10.06Q76.30 9.45 76.30 8.79Z"></path></g><!----><g data-v-423bf9ae="" id="bb08c51e-d88e-4a7e-9252-5ad1d311d638" transform="matrix(1.1675726137567437,0,0,1.1675726137567437,-12.920214519671603,-12.920047039108233)" stroke="none" fill="white"><path d="M50 11.458c-21.286 0-38.541 17.256-38.541 38.542 0 21.287 17.255 38.541 38.541 38.541S88.542 71.287 88.542 50c0-21.286-17.256-38.542-38.542-38.542zm0 73.083c-19.046 0-34.541-15.494-34.541-34.541 0-19.047 15.495-34.542 34.541-34.542 19.047 0 34.542 15.495 34.542 34.542 0 19.047-15.495 34.541-34.542 34.541zm0-60.182c6.209 0 11.905 2.223 16.347 5.908l1.42-1.42C62.958 24.802 56.761 22.359 50 22.359a27.454 27.454 0 00-12.262 2.888l1.5 1.499A25.442 25.442 0 0150 24.359zM24.359 50c0-3.717.806-7.244 2.234-10.435l-1.501-1.501A27.437 27.437 0 0022.359 50c0 6.759 2.448 12.953 6.493 17.761l1.414-1.416C26.582 61.904 24.359 56.209 24.359 50zm2.524-12.979l7.422 7.422c2.54 2.54 4.829 2.513 6.678 2.519l.443-.003c1.128 0 2.171.093 2.966.889l2.188 2.188 3.218-3.218-2.185-2.185c-.899-.9-.893-2.119-.886-3.409.01-1.844.021-4.139-2.52-6.68l-7.422-7.424a1.672 1.672 0 00-2.361.001 1.674 1.674 0 00-.004 2.353l.007.005.001.001 6.925 6.923a.999.999 0 11-1.414 1.414l-6.92-6.918-.009-.006-.006-.007a1.655 1.655 0 00-1.169-.464c-.432 0-.864.157-1.18.472a1.673 1.673 0 00-.004 2.353l.004.004 6.926 6.926a.999.999 0 11-1.414 1.414l-6.705-6.705-.006-.004-.004-.005c-.324-.322-.965-.698-1.391-.698-.428 0-.855.162-1.181.487a1.676 1.676 0 00-.004 2.354c.003-.001.006 0 .007.001zM50 75.641a25.43 25.43 0 01-13.229-3.709l-1.449 1.449c4.259 2.684 9.283 4.26 14.679 4.26 6.019 0 11.577-1.957 16.121-5.236l-1.43-1.432C60.525 73.9 55.467 75.641 50 75.641zm24.118-39.098a29.81 29.81 0 01-1.173 2.05A25.434 25.434 0 0175.641 50c0 5.589-1.819 10.75-4.867 14.964l1.43 1.43C75.605 61.802 77.642 56.14 77.642 50c0-4.885-1.29-9.47-3.524-13.457zM52.964 53.332c.023 0 .048 0 .071.002l4.434.34c17.208-17.274 18.16-23.496 16.586-25.07-.43-.428-1.001-.664-1.609-.664s-1.179.235-1.607.664L30.215 69.227a2.277 2.277 0 000 3.217c.43.428 1.021.643 1.61.643s1.179-.215 1.605-.643l18.821-18.818c.19-.19.45-.294.713-.294zm5.495 2.147a.99.99 0 01-.611.229.893.893 0 01-.072-.004l-4.435-.34-.716.717 16.302 16.301a2.442 2.442 0 001.726.725c.578 0 1.146-.213 1.576-.643.425-.424.652-.996.642-1.613a2.437 2.437 0 00-.726-1.686L58.459 55.479z"></path></g><!----></svg>