<svg xmlns="http://www.w3.org/2000/svg" version="1.1" viewBox="-5.0 -10.0 110.0 135.0">
 <g>
  <path d="m41.875 22-2.0781 8.8906c-0.14062 0.60938 0.09375 1.25 0.59375 1.625s1.1875 0.40625 1.7188 0.078125l7.8906-4.7188 7.8906 4.7188c0.25 0.14062 0.53125 0.21875 0.79688 0.21875 0.32812 0 0.65625-0.09375 0.92188-0.29688 0.5-0.375 0.75-1 0.59375-1.625l-2.0781-8.8906 6.9531-5.9844c0.46875-0.40625 0.65625-1.0625 0.46875-1.6719s-0.71875-1.0156-1.3594-1.0781l-9.1719-0.78125-3.5781-8.4219c-0.25-0.57812-0.8125-0.95312-1.4375-0.95312s-1.1875 0.375-1.4375 0.95312l-3.5781 8.4219-9.1719 0.78125c-0.625 0.046875-1.1562 0.48438-1.3594 1.0781s0 1.25 0.46875 1.6719zm4.3125-6.4688c0.57812-0.046875 1.0781-0.40625 1.2969-0.9375l2.5156-5.9062 2.5156 5.9062c0.21875 0.53125 0.73438 0.89062 1.2969 0.9375l6.4062 0.54688-4.8594 4.1719c-0.4375 0.375-0.64062 0.96875-0.5 1.5469l1.4531 6.2188-5.5312-3.3125c-0.25-0.14062-0.53125-0.21875-0.79688-0.21875s-0.5625 0.078125-0.79688 0.21875l-5.5312 3.3125 1.4531-6.2188c0.125-0.5625-0.0625-1.1562-0.5-1.5469l-4.8594-4.1719 6.4062-0.54688z"/>
  <path d="m27.234 40.406c0.25 0.14062 0.51562 0.21875 0.79688 0.21875 0.32812 0 0.65625-0.10938 0.92188-0.29688 0.5-0.375 0.73438-1.0156 0.59375-1.625l-1.8281-7.7344 6.0938-5.2031c0.48438-0.40625 0.67188-1.0625 0.46875-1.6719-0.1875-0.59375-0.73438-1.0312-1.3594-1.0781l-8.0469-0.6875-3.1406-7.3281c-0.25-0.57812-0.8125-0.95312-1.4375-0.95312s-1.1875 0.375-1.4375 0.95312l-3.1406 7.3281-8.0469 0.6875c-0.625 0.046875-1.1562 0.48438-1.3594 1.0781-0.1875 0.59375 0 1.25 0.46875 1.6719l6.0938 5.2031-1.8281 7.7344c-0.14062 0.60938 0.09375 1.25 0.59375 1.625 0.51562 0.375 1.1875 0.40625 1.7188 0.078125l6.9219-4.125 6.9219 4.125zm-12.281-4.5625 1.2031-5.0781c0.14062-0.5625-0.0625-1.1719-0.5-1.5469l-3.9688-3.3906 5.2656-0.45312c0.57812-0.046875 1.0781-0.40625 1.2969-0.9375l2.0781-4.8438 2.0781 4.8438c0.23438 0.53125 0.73438 0.89062 1.2969 0.9375l5.2656 0.45312-3.9688 3.3906c-0.45312 0.375-0.64062 0.98438-0.5 1.5469l1.2031 5.0781-4.5625-2.7188c-0.25-0.14062-0.51562-0.21875-0.79688-0.21875s-0.54688 0.078125-0.79688 0.21875l-4.5625 2.7188z"/>
  <path d="m93.672 24.094c-0.1875-0.59375-0.73438-1.0312-1.3594-1.0781l-8.0469-0.6875-3.1406-7.3281c-0.25-0.57812-0.8125-0.95312-1.4375-0.95312s-1.1875 0.375-1.4375 0.95312l-3.1406 7.3281-8.0469 0.6875c-0.625 0.046875-1.1562 0.48438-1.3594 1.0781-0.1875 0.59375 0 1.25 0.46875 1.6719l6.0938 5.2031-1.8281 7.7344c-0.14062 0.60938 0.09375 1.25 0.59375 1.625 0.51562 0.375 1.1875 0.40625 1.7188 0.078125l6.9219-4.125 6.9219 4.125c0.25 0.14062 0.51562 0.21875 0.79688 0.21875 0.32812 0 0.65625-0.10938 0.92188-0.29688 0.5-0.375 0.73438-1.0156 0.59375-1.625l-1.8281-7.7344 6.0938-5.2031c0.48438-0.40625 0.67188-1.0625 0.46875-1.6719zm-9.3125 5.125c-0.45312 0.375-0.64062 0.98438-0.5 1.5469l1.2031 5.0781-4.5625-2.7188c-0.25-0.14062-0.51562-0.21875-0.79688-0.21875s-0.54688 0.078125-0.79688 0.21875l-4.5625 2.7188 1.2031-5.0781c0.14062-0.5625-0.0625-1.1719-0.5-1.5469l-3.9688-3.3906 5.2656-0.45312c0.57812-0.046875 1.0781-0.40625 1.2969-0.9375l2.0781-4.8438 2.0781 4.8438c0.23438 0.53125 0.73438 0.89062 1.2969 0.9375l5.2656 0.45312-3.9688 3.3906z"/>
  <path d="m78.906 57.812h-17.141c1.4375-3.75 1.9531-7.7812 1.5156-11.812l-0.29688-2.7188c-0.35938-3.2969-3.1406-5.7969-6.4688-5.7969-3.5938 0-6.5156 2.9219-6.5156 6.5156 0 4.3438-1.875 8.4844-5.1562 11.344l-4.6406 4.0625c-0.53125-0.95312-1.5469-1.6094-2.7188-1.6094h-4.6875v-1.5625c0-1.7188-1.4062-3.125-3.125-3.125h-12.5c-1.7188 0-3.125 1.4062-3.125 3.125v37.5c0 1.7188 1.4062 3.125 3.125 3.125h12.5c1.7188 0 3.125-1.4062 3.125-3.125v-1.5625h4.6875c1.5469 0 2.8281-1.1406 3.0781-2.625l5.2031 1.4844c2.6562 0.75 5.4062 1.1406 8.1562 1.1406h20.281c3.0156 0 5.4688-2.4531 5.4688-5.4688 0-1.1875-0.375-2.2812-1.0156-3.1719 1.5469-0.96875 2.5781-2.6875 2.5781-4.6406 0-1.1875-0.375-2.2812-1.0156-3.1719 1.5469-0.96875 2.5781-2.6875 2.5781-4.6406 0-1.1875-0.375-2.2812-1.0156-3.1719 1.5469-0.96875 2.5781-2.6875 2.5781-4.6406 0-3.0156-2.4531-5.4688-5.4688-5.4688zm-61.719 35.938v-37.5h12.5v37.484h-12.5zm20.312-31.25v26.562h-4.6875v-28.125h4.6875zm41.406 3.125h-1.5625c-0.85938 0-1.5625 0.70312-1.5625 1.5625s0.70312 1.5625 1.5625 1.5625c1.2969 0 2.3438 1.0469 2.3438 2.3438s-1.0469 2.3438-2.3438 2.3438h-1.5625c-0.85938 0-1.5625 0.70312-1.5625 1.5625s0.70312 1.5625 1.5625 1.5625c1.2969 0 2.3438 1.0469 2.3438 2.3438s-1.0469 2.3438-2.3438 2.3438h-1.5625c-0.85938 0-1.5625 0.70312-1.5625 1.5625s0.70312 1.5625 1.5625 1.5625c1.2969 0 2.3438 1.0469 2.3438 2.3438s-1.0469 2.3438-2.3438 2.3438h-20.281c-2.4688 0-4.9219-0.34375-7.2969-1.0156l-6.0156-1.7188v-23.109l6.2812-5.5c3.9531-3.4531 6.2188-8.4531 6.2188-13.703 0-1.8594 1.5156-3.3906 3.3906-3.3906 1.7344 0 3.1719 1.2969 3.3594 3.0156l0.29688 2.7188c0.46875 4.25-0.28125 8.5-2.2031 12.328-0.25 0.48438-0.21875 1.0625 0.0625 1.5156s0.78125 0.73438 1.3281 0.73438h19.531c1.2969 0 2.3438 1.0469 2.3438 2.3438s-1.0469 2.3438-2.3438 2.3438z"/>
 </g>
</svg>