<svg xmlns="http://www.w3.org/2000/svg" version="1.1" viewBox="-5.0 -10.0 110.0 135.0">
 <g fill-rule="evenodd">
  <path d="m39.766 12.527c0.71094-3.7852 4.0156-6.5273 7.8633-6.5273h4.7422c3.8477 0 7.1523 2.7422 7.8633 6.5273l0.50781 2.7109c0.22656 1.1992 1.1523 2.2812 2.4961 2.8398 1.332 0.55078 2.7305 0.44141 3.7461-0.25391l2.2773-1.5586c3.1797-2.1758 7.4531-1.7773 10.176 0.94531l3.3516 3.3516c2.7227 2.7227 3.1211 7 0.94531 10.176l-1.5586 2.2773c-0.69531 1.0195-0.80469 2.4141-0.25391 3.7461 0.55859 1.3438 1.6406 2.2695 2.8398 2.4961l2.7109 0.50781c3.7852 0.71094 6.5273 4.0156 6.5273 7.8633v4.7422c0 3.8477-2.7422 7.1523-6.5273 7.8633l-2.7109 0.50781c-1.1992 0.22656-2.2812 1.1523-2.8398 2.4961-0.55078 1.332-0.44141 2.7266 0.25391 3.7461l1.5586 2.2773c2.1758 3.1758 1.7773 7.4531-0.94531 10.176l-3.3516 3.3516c-2.7227 2.7227-6.9961 3.1211-10.176 0.94531l-2.2773-1.5586c-1.0156-0.69531-2.4141-0.80469-3.7461-0.25391-1.3438 0.55859-2.2695 1.6406-2.4961 2.8398l-0.50781 2.7109c-0.71094 3.7852-4.0156 6.5273-7.8633 6.5273h-4.7422c-3.8477 0-7.1523-2.7422-7.8633-6.5273l-0.50781-2.7109c-0.22656-1.1992-1.1523-2.2812-2.4961-2.8398-1.332-0.55078-2.7305-0.44141-3.7461 0.25391l-2.2773 1.5586c-3.1797 2.1758-7.4531 1.7773-10.176-0.94531l-3.3516-3.3516c-2.7227-2.7227-3.1211-7-0.94531-10.176l1.5586-2.2773c0.69531-1.0156 0.80469-2.4141 0.25391-3.7461-0.55859-1.3438-1.6406-2.2695-2.8398-2.4961l-2.7109-0.50781c-3.7852-0.71094-6.5273-4.0156-6.5273-7.8633v-4.7422c0-3.8477 2.7422-7.1523 6.5273-7.8633l2.7109-0.50781c1.1992-0.22656 2.2812-1.1523 2.8398-2.4961 0.55078-1.332 0.44141-2.7305-0.25391-3.7461l-1.5586-2.2773c-2.1758-3.1758-1.7773-7.4531 0.94531-10.176l3.3516-3.3516c2.7227-2.7227 6.9961-3.1211 10.176-0.94531l2.2773 1.5586c1.0156 0.69531 2.4141 0.80469 3.7461 0.25391 1.3438-0.55859 2.2695-1.6406 2.4961-2.8398zm7.8633-2.5273c-1.9258 0-3.5742 1.3711-3.9297 3.2617l-0.51172 2.7148c-0.51172 2.7461-2.5234 4.8125-4.8906 5.7969-2.3828 0.98828-5.2383 0.92578-7.5391-0.64844l-2.2773-1.5586c-1.5898-1.0859-3.7266-0.88672-5.0898 0.47266l-3.3516 3.3516c-1.3594 1.3633-1.5586 3.5-0.47266 5.0898l1.5586 2.2773c1.5742 2.3008 1.6367 5.1562 0.64844 7.5391-0.98438 2.3672-3.0508 4.3789-5.7969 4.8906l-2.7148 0.51172c-1.8906 0.35547-3.2617 2.0039-3.2617 3.9297v4.7422c0 1.9258 1.3711 3.5742 3.2617 3.9297l2.7148 0.51172c2.7461 0.51172 4.8125 2.5234 5.7969 4.8906 0.98828 2.3828 0.92578 5.2383-0.64844 7.5391l-1.5586 2.2773c-1.0859 1.5898-0.88672 3.7266 0.47266 5.0898l3.3516 3.3516c1.3633 1.3594 3.5 1.5586 5.0898 0.47266l2.2773-1.5586c2.3008-1.5742 5.1562-1.6367 7.5391-0.64844 2.3672 0.98438 4.3789 3.0508 4.8906 5.7969l0.51172 2.7148c0.35547 1.8906 2.0039 3.2617 3.9297 3.2617h4.7422c1.9258 0 3.5742-1.3711 3.9297-3.2617l0.51172-2.7148c0.51172-2.7461 2.5234-4.8125 4.8906-5.7969 2.3828-0.98828 5.2383-0.92578 7.5391 0.64844l2.2773 1.5586c1.5898 1.0859 3.7266 0.88672 5.0898-0.47266l3.3516-3.3516c1.3594-1.3633 1.5586-3.5 0.47266-5.0898l-1.5586-2.2773c-1.5742-2.3008-1.6367-5.1562-0.64844-7.5391 0.98438-2.3672 3.0508-4.3789 5.7969-4.8906l2.7148-0.51172c1.8906-0.35547 3.2617-2.0039 3.2617-3.9297v-4.7422c0-1.9258-1.3711-3.5742-3.2617-3.9297l-2.7148-0.51172c-2.7461-0.51172-4.8125-2.5234-5.7969-4.8906-0.98828-2.3828-0.92578-5.2383 0.64844-7.5391l1.5586-2.2773c1.0859-1.5898 0.88672-3.7266-0.47266-5.0898l-3.3516-3.3516c-1.3633-1.3594-3.5-1.5586-5.0898-0.47266l-2.2773 1.5586c-2.3008 1.5742-5.1562 1.6367-7.5391 0.64844-2.3672-0.98438-4.3789-3.0508-4.8906-5.7969l-0.51172-2.7148c-0.35547-1.8906-2.0039-3.2617-3.9297-3.2617z"/>
  <path d="m50 63c7.1797 0 13-5.8203 13-13s-5.8203-13-13-13-13 5.8203-13 13 5.8203 13 13 13zm0 4c9.3906 0 17-7.6094 17-17s-7.6094-17-17-17-17 7.6094-17 17 7.6094 17 17 17z"/>
  <path d="m50 55c2.7617 0 5-2.2383 5-5s-2.2383-5-5-5-5 2.2383-5 5 2.2383 5 5 5zm0 4c4.9688 0 9-4.0312 9-9s-4.0312-9-9-9-9 4.0312-9 9 4.0312 9 9 9z"/>
 </g>
</svg>