<svg xmlns="http://www.w3.org/2000/svg" version="1.1" viewBox="-5.0 -10.0 110.0 135.0">
 <g>
  <path d="m50 50.062c13.812 0 25.031-11.234 25.031-25.031s-11.219-25.031-25.031-25.031-25.031 11.219-25.031 25.031 11.234 25.031 25.031 25.031zm0-42.266c9.5 0 17.219 7.7344 17.219 17.219s-7.7344 17.219-17.219 17.219-17.219-7.7344-17.219-17.219 7.7344-17.219 17.219-17.219z"/>
  <path d="m50 53.844c-25.453 0-46.172 20.719-46.172 46.172h7.8125c0-21.156 17.203-38.359 38.359-38.359s38.359 17.203 38.359 38.359h7.8125c0-25.453-20.719-46.172-46.172-46.172z"/>
 </g>
</svg>